<?xml version="1.0" encoding="utf-8"?>
<!-- Generator: Adobe Illustrator 19.0.0, SVG Export Plug-In . SVG Version: 6.00 Build 0)  -->
<svg version="1.1" id="Layer_1" xmlns="http://www.w3.org/2000/svg" xmlns:xlink="http://www.w3.org/1999/xlink" x="0px" y="0px"
	 viewBox="-469 271.4 19.6 19.6" style="enable-background:new -469 271.4 19.6 19.6;" xml:space="preserve">
<style type="text/css">
	.st0{fill:#FFFFFF;}
</style>
<g id="Layer_1_1_">
</g>
<g id="ref">
</g>
<path id="XMLID_829_" class="st0" d="M-449.4,272.5v17.4c0,0.6-0.5,1.1-1.1,1.1h-5v-7.6h2.5l0.4-3h-2.9v-1.9c0-0.9,0.2-1.4,1.5-1.4
	h1.6v-2.6c-0.3,0-1.2-0.1-2.3-0.1c-2.3,0-3.8,1.4-3.8,3.9v2.2h-2.6v3h2.6v7.6h-9.4c-0.6,0-1.1-0.5-1.1-1.1v-17.4
	c0-0.6,0.5-1.1,1.1-1.1h17.4C-449.9,271.4-449.4,271.9-449.4,272.5z"/>
</svg>
