<?xml version="1.0" encoding="utf-8"?>
<!-- Generator: Adobe Illustrator 19.0.0, SVG Export Plug-In . SVG Version: 6.00 Build 0)  -->
<svg version="1.1" id="Layer_1" xmlns="http://www.w3.org/2000/svg" xmlns:xlink="http://www.w3.org/1999/xlink" x="0px" y="0px"
	 viewBox="-466 267.7 26.3 26.3" style="enable-background:new -466 267.7 26.3 26.3;" xml:space="preserve">
<style type="text/css">
	.st0{fill:#2B2B2E;}
</style>
<g id="Layer_1_1_">
</g>
<g id="ref">
</g>
<g id="XMLID_403_">
	<path id="XMLID_842_" class="st0" d="M-439.2,292.5c0,0.4-0.1,0.7-0.4,1s-0.6,0.4-1.1,0.4h-6.7v-10.2h3.4l0.5-3.9h-3.9v-2.5
		c0-0.7,0.1-1.1,0.4-1.4c0.3-0.4,0.8-0.5,1.6-0.5h2.1v-3.6c-0.8-0.1-1.8-0.1-3-0.1c-1.5,0-2.8,0.4-3.7,1.3s-1.4,2.2-1.4,3.9v2.9
		h-3.4v3.9h3.4V294H-464c-0.4,0-0.8-0.1-1.1-0.4s-0.4-0.6-0.4-1v-23.3c0-0.4,0.1-0.8,0.4-1.1s0.6-0.4,1.1-0.4h23.3
		c0.4,0,0.7,0.1,1,0.4s0.4,0.6,0.4,1.1V292.5z"/>
</g>
</svg>
