<?xml version="1.0" encoding="utf-8"?>
<!-- Generator: Adobe Illustrator 19.0.0, SVG Export Plug-In . SVG Version: 6.00 Build 0)  -->
<svg version="1.1" id="Layer_1" xmlns="http://www.w3.org/2000/svg" xmlns:xlink="http://www.w3.org/1999/xlink" x="0px" y="0px"
	 viewBox="-466 267.7 26.3 26.3" style="enable-background:new -466 267.7 26.3 26.3;" xml:space="preserve">
<style type="text/css">
	.st0{fill:#2B2B2E;}
</style>
<g id="Layer_1_1_">
</g>
<g id="ref">
</g>
<g id="XMLID_447_">
	<path id="XMLID_943_" class="st0" d="M-439.3,275.4c0,1.1,0.1,2.9,0.1,5.4s0,4.4-0.1,5.5s-0.2,2.1-0.5,2.9c-0.4,1-0.9,1.8-1.6,2.5
		s-1.6,1.3-2.5,1.6c-0.8,0.3-1.8,0.4-2.9,0.5s-2.9,0.1-5.5,0.1s-4.4,0-5.5-0.1s-2.1-0.2-2.9-0.6c-1-0.3-1.8-0.8-2.5-1.6
		s-1.3-1.6-1.6-2.5c-0.3-0.8-0.4-1.8-0.5-2.9s-0.1-2.9-0.1-5.5s0-4.4,0.1-5.5s0.2-2.1,0.5-2.9c0.4-1,0.9-1.8,1.6-2.5
		s1.6-1.3,2.5-1.6c0.8-0.3,1.8-0.4,2.9-0.5s2.9-0.1,5.5-0.1s4.4,0,5.5,0.1s2.1,0.2,2.9,0.5c1,0.4,1.8,0.9,2.5,1.6s1.3,1.6,1.6,2.5
		C-439.6,273.3-439.4,274.2-439.3,275.4z M-442.1,288.6c0.2-0.7,0.4-1.7,0.5-3.2c0-0.9,0.1-2.1,0.1-3.6v-1.9c0-1.6,0-2.8-0.1-3.6
		c-0.1-1.5-0.2-2.5-0.5-3.2c-0.5-1.2-1.3-2.1-2.5-2.5c-0.6-0.2-1.7-0.4-3.2-0.5c-0.9,0-2.1-0.1-3.6-0.1h-1.9c-1.6,0-2.8,0-3.6,0.1
		c-1.4,0.1-2.5,0.2-3.2,0.5c-1.2,0.5-2.1,1.3-2.5,2.5c-0.2,0.6-0.4,1.7-0.5,3.2c0,0.9-0.1,2.1-0.1,3.6v1.9c0,1.6,0,2.8,0.1,3.6
		c0.1,1.4,0.2,2.5,0.5,3.2c0.5,1.2,1.3,2.1,2.5,2.5c0.7,0.2,1.7,0.4,3.2,0.5c0.9,0,2.1,0.1,3.6,0.1h1.9c1.6,0,2.8,0,3.6-0.1
		c1.5-0.1,2.5-0.2,3.2-0.5C-443.4,290.6-442.6,289.7-442.1,288.6z M-452.4,274.1c1.2,0,2.3,0.3,3.4,0.9s1.9,1.4,2.5,2.5
		s0.9,2.2,0.9,3.4s-0.3,2.3-0.9,3.4s-1.4,1.9-2.5,2.5s-2.2,0.9-3.4,0.9s-2.3-0.3-3.4-0.9s-1.9-1.4-2.5-2.5s-0.9-2.2-0.9-3.4
		s0.3-2.3,0.9-3.4s1.4-1.9,2.5-2.5S-453.6,274.1-452.4,274.1z M-452.4,285.2c1.2,0,2.2-0.4,3.1-1.3s1.3-1.9,1.3-3.1
		s-0.4-2.2-1.3-3.1s-1.9-1.3-3.1-1.3s-2.2,0.4-3.1,1.3s-1.3,1.9-1.3,3.1s0.4,2.2,1.3,3.1S-453.6,285.2-452.4,285.2z M-443.8,273.8
		c0-0.4-0.2-0.8-0.5-1.1s-0.7-0.5-1.1-0.5s-0.8,0.2-1.1,0.5s-0.5,0.7-0.5,1.1s0.2,0.8,0.5,1.1s0.7,0.5,1.1,0.5s0.8-0.2,1.1-0.5
		S-443.8,274.2-443.8,273.8z"/>
</g>
</svg>
