<?xml version="1.0" encoding="utf-8"?>
<!-- Generator: Adobe Illustrator 19.0.0, SVG Export Plug-In . SVG Version: 6.00 Build 0)  -->
<svg version="1.1" id="Layer_1" xmlns="http://www.w3.org/2000/svg" xmlns:xlink="http://www.w3.org/1999/xlink" x="0px" y="0px"
	 viewBox="-466 267.7 26.3 26.3" style="enable-background:new -466 267.7 26.3 26.3;" xml:space="preserve">
<style type="text/css">
	.st0{fill:#2B2B2E;}
</style>
<g id="Layer_1_1_">
</g>
<g id="ref">
</g>
<g id="XMLID_383_">
	<path id="XMLID_486_" class="st0" d="M-441.6,267.7c0.5,0,0.9,0.2,1.3,0.6s0.6,0.8,0.6,1.3v22.5c0,0.5-0.2,0.9-0.6,1.3
		s-0.8,0.6-1.3,0.6h-22.5c-0.5,0-0.9-0.2-1.3-0.6s-0.6-0.8-0.6-1.3v-22.5c0-0.5,0.2-0.9,0.6-1.3s0.8-0.6,1.3-0.6H-441.6z M-460,276
		c0.6,0,1.2-0.2,1.6-0.7s0.7-1,0.7-1.6s-0.2-1.1-0.7-1.6s-1-0.7-1.6-0.7s-1.2,0.2-1.6,0.7s-0.6,1-0.6,1.6s0.2,1.1,0.6,1.6
		S-460.6,276-460,276z M-458.1,290.2L-458.1,290.2l0.1-12.5h-3.9v12.5H-458.1z M-443.5,290.2v-6.9c0-2-0.3-3.4-0.8-4.3
		c-0.7-1.1-2-1.7-3.8-1.7c-0.9,0-1.7,0.2-2.4,0.6c-0.6,0.4-1,0.8-1.3,1.3h-0.1v-1.7h-3.8v12.5h3.9V284c0-1,0.1-1.7,0.4-2.2
		c0.4-0.7,1-1,1.9-1s1.5,0.4,1.8,1.1c0.2,0.5,0.3,1.2,0.3,2.2v6.1H-443.5z"/>
</g>
</svg>
