<?xml version="1.0" encoding="utf-8"?>
<!-- Generator: Adobe Illustrator 19.0.0, SVG Export Plug-In . SVG Version: 6.00 Build 0)  -->
<svg version="1.1" id="Layer_1" xmlns="http://www.w3.org/2000/svg" xmlns:xlink="http://www.w3.org/1999/xlink" x="0px" y="0px"
	 viewBox="-469 271.4 19.6 19.6" style="enable-background:new -469 271.4 19.6 19.6;" xml:space="preserve">
<style type="text/css">
	.st0{fill:#FFFFFF;}
</style>
<g id="Layer_1_1_">
</g>
<g id="ref">
</g>
<path id="XMLID_823_" class="st0" d="M-449.9,272.4h-16.8c-0.8,0-1.4,0.6-1.4,1.4v16.8c0,0.8,0.6,1.4,1.4,1.4h16.8
	c0.8,0,1.4-0.6,1.4-1.4v-16.8C-448.5,273-449.1,272.4-449.9,272.4z M-462.1,289.2h-2.9v-9.4h2.9L-462.1,289.2L-462.1,289.2z
	 M-463.6,278.6c-0.9,0-1.7-0.8-1.7-1.7c0-0.9,0.8-1.7,1.7-1.7c0.9,0,1.7,0.8,1.7,1.7C-461.9,277.8-462.7,278.6-463.6,278.6z
	 M-451.3,289.2h-2.9v-4.5c0-1.1,0-2.5-1.5-2.5c-1.5,0-1.7,1.2-1.7,2.4v4.6h-2.9v-9.4h2.8v1.3h0c0.4-0.7,1.3-1.5,2.8-1.5
	c2.9,0,3.5,1.9,3.5,4.5V289.2z"/>
</svg>
